<svg width="200" height="200" viewBox="0 0 200 200" fill="none" xmlns="http://www.w3.org/2000/svg">
<path d="M45.8402 177.529V41.8648H31V23.375H82.5105V41.8648H67.5627V177.529H45.8402Z" fill="black"/>
<path d="M89.9358 178.422C84.9254 178.422 81.4567 174.955 81.4567 169.946C81.4567 164.937 84.9254 161.663 89.9358 161.663C94.7535 161.663 98.2222 164.937 98.2222 169.946C98.2222 174.955 94.7535 178.422 89.9358 178.422Z" fill="black"/>
<path d="M119.474 179C110.802 176.688 106.948 171.487 106.948 151.838V41.4564C106.948 34.1362 105.407 32.5951 100.974 32.5951H98.6618L109.453 22C117.162 23.7337 120.052 28.7423 120.052 41.4564V151.838C120.052 165.515 122.172 168.405 127.953 168.405H130.266L119.474 179ZM123.136 32.5951L133.927 22C141.636 23.7337 144.526 28.7423 144.526 41.4564V151.838C144.526 165.515 146.646 168.405 152.427 168.405H154.74L143.948 179C135.276 176.688 131.422 171.487 131.422 151.838V41.4564C131.422 34.1362 129.88 32.5951 125.448 32.5951H123.136ZM147.609 32.5951L158.401 22C166.109 23.7337 169 28.7423 169 41.4564V133.537C169 149.141 163.797 159.544 155.896 167.442V41.4564C155.896 34.1362 154.354 32.5951 149.922 32.5951H147.609Z" fill="black"/>
</svg>
